<svg xmlns="http://www.w3.org/2000/svg" width="1560" height="900" viewBox="0 0 1560 900"><title>间隔：遗忘曲线与复习调度</title><defs><marker id="aN" markerWidth="9" markerHeight="9" refX="7" refY="4.5" orient="auto"><path d="M0,1 L7,4.5 L0,8" fill="none" stroke="#93A0BF" stroke-width="1.6"/></marker><marker id="aE0" markerWidth="9" markerHeight="9" refX="7" refY="4.5" orient="auto"><path d="M0,1 L7,4.5 L0,8" fill="none" stroke="#8B5CF6" stroke-width="1.8"/></marker><marker id="aE1" markerWidth="9" markerHeight="9" refX="7" refY="4.5" orient="auto"><path d="M0,1 L7,4.5 L0,8" fill="none" stroke="#22D3EE" stroke-width="1.8"/></marker><marker id="aE2" markerWidth="9" markerHeight="9" refX="7" refY="4.5" orient="auto"><path d="M0,1 L7,4.5 L0,8" fill="none" stroke="#34D399" stroke-width="1.8"/></marker><marker id="aE3" markerWidth="9" markerHeight="9" refX="7" refY="4.5" orient="auto"><path d="M0,1 L7,4.5 L0,8" fill="none" stroke="#F59E0B" stroke-width="1.8"/></marker><marker id="aE4" markerWidth="9" markerHeight="9" refX="7" refY="4.5" orient="auto"><path d="M0,1 L7,4.5 L0,8" fill="none" stroke="#FB7185" stroke-width="1.8"/></marker><radialGradient id="glowV" cx="50%" cy="50%" r="50%"><stop offset="0%" stop-color="#8B5CF6" stop-opacity="0.22"/><stop offset="100%" stop-color="#8B5CF6" stop-opacity="0"/></radialGradient><radialGradient id="glowC" cx="50%" cy="50%" r="50%"><stop offset="0%" stop-color="#22D3EE" stop-opacity="0.18"/><stop offset="100%" stop-color="#22D3EE" stop-opacity="0"/></radialGradient><linearGradient id="lgA" x1="0" y1="0" x2="1" y2="0"><stop offset="0%" stop-color="#8B5CF6"/><stop offset="25%" stop-color="#22D3EE"/><stop offset="50%" stop-color="#34D399"/><stop offset="75%" stop-color="#F59E0B"/><stop offset="100%" stop-color="#FB7185"/></linearGradient></defs><rect width="1560" height="900" fill="#0B1020"/><circle cx="240" cy="200" r="330" fill="url(#glowV)"/><text x="64" y="70" font-size="40" fill="#E8ECF8" font-weight="800" text-anchor="start" dominant-baseline="middle">间隔 · 在遗忘边缘复习</text><text x="64" y="110" font-size="19" fill="#93A0BF" font-weight="400" text-anchor="start" dominant-baseline="middle">遗忘不是 bug；卡在 R≈0.9 复习，收益/成本最优</text><text x="100" y="196" font-size="16" fill="#C7D2EA" font-weight="500" text-anchor="start" dominant-baseline="middle">R = e^(−t/S)　（S 越大，衰减越慢）</text><line x1="120" y1="700" x2="860" y2="700" stroke="#2A3550" stroke-width="1.5"/><line x1="120" y1="240" x2="120" y2="700" stroke="#2A3550" stroke-width="1.5"/><text x="490" y="742" font-size="17" fill="#93A0BF" font-weight="400" text-anchor="middle" dominant-baseline="middle">时间 →</text><text x="78" y="470" font-size="17" fill="#93A0BF" font-weight="400" text-anchor="middle" dominant-baseline="middle">记忆强度 R</text><text x="108" y="240" font-size="14" fill="#93A0BF" font-weight="400" text-anchor="end" dominant-baseline="middle">1.0</text><text x="108" y="470" font-size="14" fill="#93A0BF" font-weight="400" text-anchor="end" dominant-baseline="middle">0.5</text><text x="108" y="700" font-size="14" fill="#93A0BF" font-weight="400" text-anchor="end" dominant-baseline="middle">0</text><line x1="120" y1="286.0" x2="860" y2="286.0" stroke="#F59E0B" stroke-width="1.3" stroke-dasharray="6 6" opacity="0.75"/><text x="852" y="270" font-size="15" fill="#F59E0B" font-weight="600" text-anchor="end" dominant-baseline="middle">R ≈ 0.9：最佳复习窗口</text><polyline points="120.0,240.0 125.1,341.8 130.3,421.0 135.4,482.7 140.6,530.8" fill="none" stroke="#22D3EE" stroke-width="3" opacity="0.95"/><polyline points="140.6,240.0 145.7,276.8 150.8,310.6 156.0,341.8 161.1,370.4 166.2,396.7 171.4,421.0 176.5,443.3 181.7,463.8 186.8,482.7 191.9,500.1 197.1,516.1 202.2,530.8" fill="none" stroke="#34D399" stroke-width="3" opacity="0.95"/><polyline points="202.2,240.0 207.4,254.2 212.5,267.9 217.6,281.2 222.8,294.1 227.9,306.5 233.1,318.6 238.2,330.4 243.3,341.8 248.5,352.8 253.6,363.5 258.8,373.8 263.9,383.8 269.0,393.6 274.2,403.0 279.3,412.1 284.4,421.0 289.6,429.6 294.7,437.9 299.9,446.0 305.0,453.8 310.1,461.4 315.3,468.7 320.4,475.8 325.6,482.7 330.7,489.4 335.8,495.9 341.0,502.2 346.1,508.2 351.2,514.1 356.4,519.9 361.5,525.4 366.7,530.8" fill="none" stroke="#8B5CF6" stroke-width="3" opacity="0.95"/><polyline points="366.7,240.0 371.8,245.7 376.9,251.4 382.1,256.9 387.2,262.4 392.4,267.9 397.5,273.2 402.6,278.5 407.8,283.8 412.9,288.9 418.1,294.1 423.2,299.1 428.3,304.1 433.5,309.0 438.6,313.8 443.8,318.6 448.9,323.4 454.0,328.1 459.2,332.7 464.3,337.2 469.4,341.8 474.6,346.2 479.7,350.6 484.9,354.9 490.0,359.2 495.1,363.5 500.3,367.6 505.4,371.8 510.6,375.8 515.7,379.9 520.8,383.8 526.0,387.8 531.1,391.7 536.2,395.5 541.4,399.3 546.5,403.0 551.7,406.7 556.8,410.3 561.9,413.9 567.1,417.5 572.2,421.0 577.4,424.5 582.5,427.9 587.6,431.3 592.8,434.6 597.9,437.9 603.1,441.2 608.2,444.4 613.3,447.5 618.5,450.7 623.6,453.8 628.8,456.8 633.9,459.9 639.0,462.8 644.2,465.8 649.3,468.7 654.4,471.6 659.6,474.4 664.7,477.2 669.9,480.0 675.0,482.7 680.1,485.4 685.3,488.1 690.4,490.7 695.6,493.3 700.7,495.9 705.8,498.4 711.0,500.9 716.1,503.4 721.2,505.8 726.4,508.2 731.5,510.6 736.7,513.0 741.8,515.3 746.9,517.6 752.1,519.9 757.2,522.1 762.4,524.3 767.5,526.5 772.6,528.6 777.8,530.8 782.9,532.9 788.1,535.0 793.2,537.0 798.3,539.0 803.5,541.0 808.6,543.0 813.8,545.0 818.9,546.9 824.0,548.8 829.2,550.7 834.3,552.5 839.4,554.3 844.6,556.2 849.7,557.9 854.9,559.7 860.0,561.5" fill="none" stroke="#FB7185" stroke-width="3" opacity="0.95"/><circle cx="120.0" cy="240.0" r="7" fill="#22D3EE" stroke="#0B1020" stroke-width="3"/><text x="132" y="264" font-size="15" fill="#22D3EE" font-weight="600" text-anchor="start" dominant-baseline="middle">学习</text><circle cx="140.6" cy="240.0" r="7" fill="#34D399" stroke="#0B1020" stroke-width="3"/><text x="151" y="220" font-size="15" fill="#34D399" font-weight="600" text-anchor="start" dominant-baseline="middle">复习①</text><circle cx="202.2" cy="240.0" r="7" fill="#8B5CF6" stroke="#0B1020" stroke-width="3"/><text x="212" y="220" font-size="15" fill="#8B5CF6" font-weight="600" text-anchor="start" dominant-baseline="middle">复习②</text><circle cx="366.7" cy="240.0" r="7" fill="#FB7185" stroke="#0B1020" stroke-width="3"/><text x="377" y="220" font-size="15" fill="#FB7185" font-weight="600" text-anchor="start" dominant-baseline="middle">复习③</text><text x="852" y="256" font-size="15" fill="#93A0BF" font-weight="400" text-anchor="end" dominant-baseline="middle">S 随复习增长 → 曲线越来越平</text><text x="120" y="772" font-size="15" fill="#93A0BF" font-weight="400" text-anchor="start" dominant-baseline="middle">口径：最佳间隔 ≈ 目标保持期的 10–20% [C06]；254 项实验支持分布练习 [C04]</text><rect x="940" y="240" width="560" height="268" rx="18" fill="#121A2E" stroke="#232F4E" stroke-width="1.2"/><text x="962" y="270" font-size="22" fill="#E8ECF8" font-weight="700" text-anchor="start" dominant-baseline="middle">交错练习 vs 块状练习</text><rect x="962" y="290" width="18" height="18" rx="4" fill="#34D399" opacity="0.9"/><text x="986" y="299" font-size="14" fill="#93A0BF" font-weight="400" text-anchor="start" dominant-baseline="middle">A 类题型</text><rect x="1028" y="290" width="18" height="18" rx="4" fill="#8B5CF6" opacity="0.9"/><text x="1052" y="299" font-size="14" fill="#93A0BF" font-weight="400" text-anchor="start" dominant-baseline="middle">B 类题型</text><rect x="1094" y="290" width="18" height="18" rx="4" fill="#F59E0B" opacity="0.9"/><text x="1118" y="299" font-size="14" fill="#93A0BF" font-weight="400" text-anchor="start" dominant-baseline="middle">C 类题型</text><text x="962" y="346" font-size="16" fill="#E8ECF8" font-weight="600" text-anchor="start" dominant-baseline="middle">块状</text><rect x="1036" y="324" width="44" height="44" rx="8" fill="#34D399" opacity="0.85"/><text x="1058" y="347" font-size="20" fill="#0B1020" font-weight="800" text-anchor="middle" dominant-baseline="middle">A</text><rect x="1084" y="324" width="44" height="44" rx="8" fill="#34D399" opacity="0.85"/><text x="1106" y="347" font-size="20" fill="#0B1020" font-weight="800" text-anchor="middle" dominant-baseline="middle">A</text><rect x="1132" y="324" width="44" height="44" rx="8" fill="#34D399" opacity="0.85"/><text x="1154" y="347" font-size="20" fill="#0B1020" font-weight="800" text-anchor="middle" dominant-baseline="middle">A</text><rect x="1180" y="324" width="44" height="44" rx="8" fill="#8B5CF6" opacity="0.85"/><text x="1202" y="347" font-size="20" fill="#0B1020" font-weight="800" text-anchor="middle" dominant-baseline="middle">B</text><rect x="1228" y="324" width="44" height="44" rx="8" fill="#8B5CF6" opacity="0.85"/><text x="1250" y="347" font-size="20" fill="#0B1020" font-weight="800" text-anchor="middle" dominant-baseline="middle">B</text><rect x="1276" y="324" width="44" height="44" rx="8" fill="#8B5CF6" opacity="0.85"/><text x="1298" y="347" font-size="20" fill="#0B1020" font-weight="800" text-anchor="middle" dominant-baseline="middle">B</text><rect x="1324" y="324" width="44" height="44" rx="8" fill="#F59E0B" opacity="0.85"/><text x="1346" y="347" font-size="20" fill="#0B1020" font-weight="800" text-anchor="middle" dominant-baseline="middle">C</text><rect x="1372" y="324" width="44" height="44" rx="8" fill="#F59E0B" opacity="0.85"/><text x="1394" y="347" font-size="20" fill="#0B1020" font-weight="800" text-anchor="middle" dominant-baseline="middle">C</text><rect x="1420" y="324" width="44" height="44" rx="8" fill="#F59E0B" opacity="0.85"/><text x="1442" y="347" font-size="20" fill="#0B1020" font-weight="800" text-anchor="middle" dominant-baseline="middle">C</text><text x="962" y="404" font-size="16" fill="#E8ECF8" font-weight="600" text-anchor="start" dominant-baseline="middle">交错</text><rect x="1036" y="382" width="44" height="44" rx="8" fill="#34D399" opacity="0.85"/><text x="1058" y="405" font-size="20" fill="#0B1020" font-weight="800" text-anchor="middle" dominant-baseline="middle">A</text><rect x="1084" y="382" width="44" height="44" rx="8" fill="#8B5CF6" opacity="0.85"/><text x="1106" y="405" font-size="20" fill="#0B1020" font-weight="800" text-anchor="middle" dominant-baseline="middle">B</text><rect x="1132" y="382" width="44" height="44" rx="8" fill="#F59E0B" opacity="0.85"/><text x="1154" y="405" font-size="20" fill="#0B1020" font-weight="800" text-anchor="middle" dominant-baseline="middle">C</text><rect x="1180" y="382" width="44" height="44" rx="8" fill="#34D399" opacity="0.85"/><text x="1202" y="405" font-size="20" fill="#0B1020" font-weight="800" text-anchor="middle" dominant-baseline="middle">A</text><rect x="1228" y="382" width="44" height="44" rx="8" fill="#8B5CF6" opacity="0.85"/><text x="1250" y="405" font-size="20" fill="#0B1020" font-weight="800" text-anchor="middle" dominant-baseline="middle">B</text><rect x="1276" y="382" width="44" height="44" rx="8" fill="#F59E0B" opacity="0.85"/><text x="1298" y="405" font-size="20" fill="#0B1020" font-weight="800" text-anchor="middle" dominant-baseline="middle">C</text><rect x="1324" y="382" width="44" height="44" rx="8" fill="#34D399" opacity="0.85"/><text x="1346" y="405" font-size="20" fill="#0B1020" font-weight="800" text-anchor="middle" dominant-baseline="middle">A</text><rect x="1372" y="382" width="44" height="44" rx="8" fill="#8B5CF6" opacity="0.85"/><text x="1394" y="405" font-size="20" fill="#0B1020" font-weight="800" text-anchor="middle" dominant-baseline="middle">B</text><rect x="1420" y="382" width="44" height="44" rx="8" fill="#F59E0B" opacity="0.85"/><text x="1442" y="405" font-size="20" fill="#0B1020" font-weight="800" text-anchor="middle" dominant-baseline="middle">C</text><text x="962" y="454" font-size="15" fill="#93A0BF" font-weight="400" text-anchor="start" dominant-baseline="middle">块状：一类连做，手感顺。 交错：混着练，学得慢、记得牢。</text><text x="962" y="484" font-size="15" fill="#F59E0B" font-weight="400" text-anchor="start" dominant-baseline="middle">延迟测验 61% vs 38%（d=0.83）；材料越相似收益越大 [C07][C08]</text><rect x="940" y="536" width="560" height="300" rx="18" fill="#121A2E" stroke="#232F4E" stroke-width="1.2"/><text x="962" y="568" font-size="22" fill="#E8ECF8" font-weight="700" text-anchor="start" dominant-baseline="middle">调度：SM-2 → FSRS</text><circle cx="976" cy="610" r="13" fill="#0E2433" stroke="#22D3EE" stroke-width="1.2"/><text x="976" y="611" font-size="13" fill="#22D3EE" font-weight="700" text-anchor="middle" dominant-baseline="middle">1</text><text x="1002" y="610" font-size="16" fill="#C7D2EA" font-weight="400" text-anchor="start" dominant-baseline="middle">每张卡有状态：难度 D · 稳定度 S · 可提取度 R</text><circle cx="976" cy="654" r="13" fill="#0E2433" stroke="#22D3EE" stroke-width="1.2"/><text x="976" y="655" font-size="13" fill="#22D3EE" font-weight="700" text-anchor="middle" dominant-baseline="middle">2</text><text x="1002" y="654" font-size="16" fill="#C7D2EA" font-weight="400" text-anchor="start" dominant-baseline="middle">你给评分（Again / Hard / Good / Easy）</text><circle cx="976" cy="698" r="13" fill="#0E2433" stroke="#22D3EE" stroke-width="1.2"/><text x="976" y="699" font-size="13" fill="#22D3EE" font-weight="700" text-anchor="middle" dominant-baseline="middle">3</text><text x="1002" y="698" font-size="16" fill="#C7D2EA" font-weight="400" text-anchor="start" dominant-baseline="middle">更新 D、S，计算下个复习间隔</text><circle cx="976" cy="742" r="13" fill="#0E2433" stroke="#22D3EE" stroke-width="1.2"/><text x="976" y="743" font-size="13" fill="#22D3EE" font-weight="700" text-anchor="middle" dominant-baseline="middle">4</text><text x="1002" y="742" font-size="16" fill="#C7D2EA" font-weight="400" text-anchor="start" dominant-baseline="middle">目标留存率（desired retention）由你设定，如 0.9</text><text x="962" y="798" font-size="15" fill="#22D3EE" font-weight="400" text-anchor="start" dominant-baseline="middle">2.2 亿学习日志建模，较当时最优方法 +12.6% [C26]</text><text x="962" y="822" font-size="15" fill="#93A0BF" font-weight="400" text-anchor="start" dominant-baseline="middle">墨墨背单词线上部署；FSRS 已内置 Anki [C26][C27]</text><text x="780" y="880" font-size="15" fill="#5E6C8F" font-weight="400" text-anchor="middle" dominant-baseline="middle">间隔 = 把时间变成盟友：复习点由算法安排，你只负责检索与评分</text></svg>